<mxfile host="app.diagrams.net" modified="2020-12-14T19:18:52.978Z" agent="5.0 (Windows NT 10.0; Win64; x64) AppleWebKit/537.36 (KHTML, like Gecko) Chrome/87.0.4280.88 Safari/537.36" etag="jiLMgpDIkx4BmLZ16Mc3" version="13.10.4" type="github">
  <diagram id="2wJqZRIpaoyuRPNHFcun" name="Page-1">
    <mxGraphModel dx="1422" dy="794" grid="1" gridSize="10" guides="1" tooltips="1" connect="1" arrows="1" fold="1" page="1" pageScale="1" pageWidth="827" pageHeight="1169" math="0" shadow="0">
      <root>
        <mxCell id="0" />
        <mxCell id="1" parent="0" />
        <mxCell id="DHry_8dro_MjQxA1dlPj-2" value="sample" style="shape=folder;fontStyle=1;tabWidth=110;tabHeight=30;tabPosition=left;html=1;boundedLbl=1;labelInHeader=1;" vertex="1" parent="1">
          <mxGeometry x="400" y="310" width="160" height="110" as="geometry" />
        </mxCell>
        <mxCell id="DHry_8dro_MjQxA1dlPj-4" value="worldofzuul" style="shape=folder;fontStyle=1;tabWidth=110;tabHeight=30;tabPosition=left;html=1;boundedLbl=1;labelInHeader=1;" vertex="1" parent="1">
          <mxGeometry x="205" y="310" width="150" height="110" as="geometry" />
        </mxCell>
        <mxCell id="DHry_8dro_MjQxA1dlPj-11" value="«interface»&lt;br&gt;&lt;b&gt;ZuulGame&lt;/b&gt;" style="html=1;" vertex="1" parent="1">
          <mxGeometry x="406" y="349" width="144" height="61" as="geometry" />
        </mxCell>
        <mxCell id="DHry_8dro_MjQxA1dlPj-12" value="Game" style="swimlane;fontStyle=0;childLayout=stackLayout;horizontal=1;startSize=26;fillColor=none;horizontalStack=0;resizeParent=1;resizeParentMax=0;resizeLast=0;collapsible=1;marginBottom=0;" vertex="1" parent="1">
          <mxGeometry x="230" y="358" width="100" height="52" as="geometry" />
        </mxCell>
        <mxCell id="DHry_8dro_MjQxA1dlPj-13" value="+ Game()" style="text;strokeColor=none;fillColor=none;align=left;verticalAlign=top;spacingLeft=4;spacingRight=4;overflow=hidden;rotatable=0;points=[[0,0.5],[1,0.5]];portConstraint=eastwest;" vertex="1" parent="DHry_8dro_MjQxA1dlPj-12">
          <mxGeometry y="26" width="100" height="26" as="geometry" />
        </mxCell>
        <mxCell id="DHry_8dro_MjQxA1dlPj-18" value="" style="endArrow=none;dashed=1;html=1;entryX=0;entryY=0.623;entryDx=0;entryDy=0;entryPerimeter=0;" edge="1" parent="1">
          <mxGeometry width="50" height="50" relative="1" as="geometry">
            <mxPoint x="333" y="382" as="sourcePoint" />
            <mxPoint x="406" y="382.00299999999993" as="targetPoint" />
          </mxGeometry>
        </mxCell>
        <mxCell id="DHry_8dro_MjQxA1dlPj-19" value="" style="triangle;whiteSpace=wrap;html=1;rotation=-180;" vertex="1" parent="1">
          <mxGeometry x="332" y="368" width="12" height="26" as="geometry" />
        </mxCell>
      </root>
    </mxGraphModel>
  </diagram>
</mxfile>
